<svg aria-hidden="true" style="position: absolute; width: 0; height: 0; overflow: hidden;" version="1.1"
  xmlns="http://www.w3.org/2000/svg" xmlns:xlink="http://www.w3.org/1999/xlink">
  <defs>
    <symbol id="icon-facebook" viewBox="0 0 18 32">
      <path
        d="M11.069 32h-5.056c-0.845 0-1.532-0.696-1.532-1.552v-11.559h-2.95c-0.845 0-1.532-0.697-1.532-1.552v-4.953c0-0.856 0.687-1.552 1.532-1.552h2.95v-2.48c0-2.459 0.762-4.551 2.203-6.050 1.448-1.506 3.471-2.301 5.851-2.301l3.856 0.006c0.843 0.001 1.529 0.698 1.529 1.552v4.599c0 0.856-0.687 1.552-1.531 1.552l-2.596 0.001c-0.792 0-0.993 0.161-1.037 0.21-0.071 0.082-0.156 0.313-0.156 0.951v1.959h3.593c0.27 0 0.532 0.068 0.758 0.195 0.486 0.275 0.788 0.795 0.788 1.358l-0.002 4.953c0 0.855-0.687 1.552-1.532 1.552h-3.605v11.559c0 0.856-0.687 1.552-1.532 1.552zM6.332 30.124h4.417v-12.075c0-0.572 0.459-1.036 1.023-1.036h4.115l0.002-4.305h-4.117c-0.564 0-1.022-0.465-1.022-1.036v-2.799c0-0.733 0.073-1.566 0.619-2.193 0.66-0.757 1.699-0.845 2.423-0.845l2.277-0.001v-3.952l-3.535-0.006c-3.825 0-6.201 2.481-6.201 6.476v3.32c0 0.571-0.459 1.036-1.022 1.036h-3.459v4.305h3.459c0.564 0 1.022 0.465 1.022 1.036v12.075zM16.388 1.882v0z">
      </path>
    </symbol>
    <symbol id="icon-instagram" viewBox="0 0 32 32">
      <path
        d="M22.641 0.061h-14.237c-4.634 0-8.403 3.77-8.403 8.403v14.238c0 4.633 3.77 8.403 8.403 8.403h14.238c4.633 0 8.403-3.77 8.403-8.403v-14.238c0-4.634-3.77-8.403-8.403-8.403v0zM29.224 22.702c0 3.63-2.953 6.583-6.583 6.583h-14.237c-3.63 0-6.583-2.953-6.583-6.583v-14.238c0-3.63 2.953-6.583 6.583-6.583h14.238c3.63 0 6.583 2.953 6.583 6.583v14.238z">
      </path>
      <path
        d="M15.522 7.094c-4.681 0-8.488 3.808-8.488 8.488s3.808 8.488 8.488 8.488c4.681 0 8.488-3.808 8.488-8.488s-3.808-8.488-8.488-8.488zM15.522 22.251c-3.677 0-6.668-2.991-6.668-6.668s2.992-6.668 6.668-6.668c3.677 0 6.668 2.992 6.668 6.668s-2.991 6.668-6.668 6.668z">
      </path>
      <path
        d="M24.214 4.080c-1.383 0-2.508 1.125-2.508 2.508s1.125 2.508 2.508 2.508c1.383 0 2.508-1.125 2.508-2.508s-1.125-2.508-2.508-2.508zM24.214 7.276c-0.379 0-0.688-0.309-0.688-0.688s0.309-0.688 0.688-0.688c0.38 0 0.689 0.309 0.689 0.688s-0.309 0.688-0.689 0.688z">
      </path>
    </symbol>
    <symbol id="icon-telegram" viewBox="0 0 42 32">
      <path
        d="M41.758 0.556c-0.412-0.5-1.096-0.685-1.704-0.463l-38.623 13.884c-0.772 0.279-1.313 0.955-1.414 1.765-0.1 0.806 0.258 1.588 0.928 2.039l5.521 3.749c0.535 0.363 1.223 0.402 1.795 0.102l11.976-6.282-9.334 6.933c-0.438 0.326-0.7 0.845-0.7 1.389v6.422c0 0.662 0.365 1.269 0.953 1.584s1.3 0.284 1.859-0.083l4.194-2.768 4.125 2.798c0.361 0.246 0.792 0.376 1.226 0.376 0.147 0 0.294-0.015 0.44-0.045 0.579-0.12 1.092-0.476 1.406-0.977l17.474-28.663c0.34-0.552 0.291-1.258-0.122-1.76zM22.468 29.421l-4.271-2.897c-0.297-0.202-0.639-0.303-0.982-0.303-0.335 0-0.67 0.097-0.963 0.291l-3.581 2.363v-4.841l16.481-12.241c0.736-0.547 0.921-1.542 0.431-2.314s-1.474-1.034-2.286-0.607l-19.801 10.387-4.67-3.171 35.566-12.785-15.925 26.12z">
      </path>
    </symbol>
    <symbol id="icon-whatsapp" viewBox="0 0 32 32">
      <path
        d="M26.635 4.47c-2.844-2.844-6.623-4.409-10.645-4.409-0 0-0.001 0-0.001 0-1.989 0-3.927 0.385-5.761 1.145s-3.476 1.858-4.883 3.264c-2.843 2.843-4.409 6.624-4.409 10.645 0 2.398 0.579 4.781 1.675 6.905l-2.53 7.229c-0.178 0.51-0.052 1.064 0.33 1.446 0.267 0.268 0.619 0.41 0.981 0.41 0.155 0 0.312-0.026 0.465-0.079l7.229-2.53c2.123 1.096 4.507 1.675 6.905 1.675 4.021 0 7.802-1.566 10.645-4.409s4.409-6.624 4.409-10.645c0-4.021-1.566-7.802-4.409-10.645zM25.347 24.473c-2.499 2.5-5.823 3.876-9.358 3.876-2.162 0-4.311-0.535-6.213-1.547-0.345-0.183-0.752-0.215-1.118-0.087l-6.568 2.299 2.299-6.568c0.128-0.366 0.096-0.774-0.087-1.119-1.012-1.901-1.547-4.050-1.547-6.212 0-3.535 1.377-6.858 3.876-9.358s5.822-3.876 9.357-3.876h0.001c3.535 0 6.858 1.377 9.358 3.876s3.876 5.823 3.876 9.358c0 3.535-1.377 6.858-3.876 9.358z">
      </path>
      <path
        d="M21.584 16.46c-0.692-0.693-1.819-0.693-2.512 0l-0.757 0.757c-1.881-1.025-3.403-2.547-4.428-4.428l0.758-0.757c0.693-0.693 0.693-1.819 0-2.512l-2.041-2.041c-0.693-0.693-1.819-0.693-2.512 0l-1.633 1.633c-0.935 0.935-0.982 2.543-0.131 4.528 0.739 1.723 2.090 3.617 3.805 5.332s3.609 3.067 5.332 3.805c0.943 0.404 1.801 0.606 2.542 0.606 0.819 0 1.495-0.246 1.986-0.737l1.633-1.633c0.336-0.335 0.52-0.782 0.52-1.256s-0.185-0.921-0.52-1.256l-2.041-2.041zM20.705 21.359c-0.267 0.267-1.088 0.36-2.523-0.254-1.515-0.649-3.207-1.864-4.762-3.42s-2.77-3.247-3.419-4.762c-0.615-1.435-0.522-2.256-0.255-2.523l1.602-1.602 1.978 1.978-0.948 0.948c-0.429 0.429-0.532 1.079-0.257 1.618 1.246 2.444 3.197 4.395 5.642 5.642 0.539 0.275 1.189 0.172 1.618-0.257l0.948-0.948 1.978 1.978-1.602 1.601z">
      </path>
    </symbol>
  </defs>
</svg>